<svg xmlns="http://www.w3.org/2000/svg" width="174.503" height="343.345" viewBox="0 0 174.503 343.345">
  <path id="Path_1904" data-name="Path 1904" d="M162.766,342.345H4.271L6.643,323.87H166.725l2.371,18.475Zm-12.135-27.712H17.417l1.993-18.475h5.532V261.4H41.879c.411.418.856.851,1.319,1.3,1.734,1.646,3.551,3.226,5.417,4.69a43.643,43.643,0,0,0,7.22,4.5,76.765,76.765,0,0,0,8.545,3.725,55.564,55.564,0,0,0,10.391,2.54,89,89,0,0,0,12.009.96c.339.005.686.011,1.027.011a62.5,62.5,0,0,0,11.175-.987,75.071,75.071,0,0,0,10.334-2.584,55.324,55.324,0,0,0,8.569-3.693,52.089,52.089,0,0,0,7.12-4.531c2.015-1.53,3.841-3.049,5.428-4.514.5-.466.986-.938,1.452-1.416h16.54v34.753h5.534l1.994,18.475Zm-87.11-65.3A23.163,23.163,0,1,1,86.684,272.5,23.19,23.19,0,0,1,63.521,249.334Zm9.326,0A13.838,13.838,0,1,0,86.684,235.5,13.853,13.853,0,0,0,72.847,249.334Zm58.99-12.068c-.422-.433-.861-.883-1.327-1.338a48.552,48.552,0,0,0-5.552-4.723,64.437,64.437,0,0,0-7.043-4.388,54.841,54.841,0,0,0-8.5-3.725l-.015-.011-.889-.285a70.458,70.458,0,0,0-9.562-2.272,74.9,74.9,0,0,0-24.242,0,74.3,74.3,0,0,0-9.47,2.217c-.192.06-.372.115-.547.169l-.384.122-.012.012a46.484,46.484,0,0,0-8.6,3.807c-2.5,1.436-4.822,2.879-6.9,4.289a33.249,33.249,0,0,0-5.744,4.889l-.416.449c-.253.269-.494.532-.731.789H24.943V203.03H19.41l-1.994-18.475H155.953l-1.994,18.475h-5.532v34.236ZM7.164,175.32,4.811,156.844H11.1l-.845-6.611L4.1,101.989,2.354,88.275,0,69.8H18.592L18.6,69.8c.011-.011.017-.021.028-.032.4-.466.8-.922,1.212-1.366.158-.181.323-.356.488-.527.176-.192.357-.378.544-.564.1-.11.208-.214.312-.319q.246-.254.493-.493c1.021-1,2.068-1.948,3.139-2.815.2-.175.4-.334.6-.493.164-.131.329-.263.493-.383.3-.23.592-.455.889-.67.192-.143.39-.28.587-.417.175-.127.346-.248.521-.367.762-.517,1.536-1.005,2.315-1.461.22-.136.439-.263.664-.383.142-.082.28-.159.417-.23.209-.121.422-.236.637-.345.148-.077.3-.154.449-.231.2-.1.4-.2.6-.3a36.6,36.6,0,0,1,4.674-1.9c.248-.083.494-.158.747-.236.2-.06.4-.116.587-.17.225-.066.45-.132.674-.186q.817-.223,1.641-.4c.2-.044.4-.087.593-.121a34.721,34.721,0,0,1,4.059-.565c.215-.022.428-.039.642-.05l.292-.015c.263-.016.52-.027.785-.033.4-.016.8-.022,1.2-.022a34.683,34.683,0,0,1,4.136.247c.066-.1.142-.207.215-.311C59.819,45.319,68.2,39.159,77.446,36.7V30.371H65.552V11.894H77.446V0H95.921V11.894h11.894V30.371H95.921V36.7c9.245,2.458,17.627,8.618,24.21,17.945.071.1.148.207.214.311a34.683,34.683,0,0,1,4.136-.247c.4,0,.8.006,1.2.022.265.006.522.017.785.033l.292.015q.32.018.642.05a34.668,34.668,0,0,1,4.059.565c.2.033.4.076.593.121q.823.173,1.641.4c.225.054.449.121.674.186.2.049.4.11.587.17.253.077.5.153.747.236.674.22,1.348.46,2.012.725q1.342.526,2.661,1.174c.2.094.4.192.6.3.148.077.3.154.449.231.215.109.429.224.638.345.136.071.278.148.416.23.225.121.445.247.664.383.784.451,1.558.944,2.315,1.461.175.12.346.24.521.367.2.137.4.274.587.417.3.219.6.439.889.67.165.121.329.252.494.383q.3.239.608.493c1.075.873,2.118,1.816,3.133,2.815q.247.239.494.493c.109.1.213.209.311.319.187.186.369.373.544.564.165.171.329.346.487.527.412.445.812.9,1.212,1.366.011.012.017.022.028.032l.005.006h18.592l-2.354,18.471-1.75,13.714-6.155,48.244-.844,6.611h6.292L166.2,175.32Zm88.757-23.675v5.2h47.718l.959-7.533,2.885-22.621H120.876Zm-67.154-2.334.96,7.533H77.446v-5.2L52.491,126.689H25.883Zm53.067-21.85a7.37,7.37,0,1,0,5.211-2.159A7.369,7.369,0,0,0,81.834,127.461Zm15.531-15.532a7.371,7.371,0,1,0,5.211-2.158A7.37,7.37,0,0,0,97.366,111.929Zm-31.063,0a7.371,7.371,0,1,0,5.211-2.158A7.368,7.368,0,0,0,66.3,111.929ZM81.834,96.4a7.368,7.368,0,1,0,5.211-2.159A7.369,7.369,0,0,0,81.834,96.4ZM95.921,83.259l24.955,24.955h28.965l1.373-10.772V97.43l1.169-9.156h-4.949c-.186-.346-.373-.686-.56-1.026s-.383-.669-.576-1c-.247-.407-.493-.806-.74-1.2-.192-.307-.39-.6-.588-.9-.28-.418-.57-.829-.856-1.234-.2-.28-.4-.555-.614-.823-.493-.643-1-1.263-1.514-1.86-.236-.263-.467-.521-.7-.778a.116.116,0,0,1-.033-.033q-.37-.4-.756-.79c-.521-.526-1.058-1.031-1.6-1.508-.248-.219-.495-.427-.747-.632-.3-.252-.609-.493-.923-.729-.279-.219-.564-.423-.854-.62s-.576-.394-.868-.576c-.253-.165-.51-.319-.769-.472-.06-.033-.121-.071-.18-.1-.209-.125-.423-.241-.643-.356a1.545,1.545,0,0,0-.158-.082c-.247-.138-.5-.258-.752-.379-.28-.137-.565-.268-.856-.389-.017-.011-.04-.017-.06-.029-.264-.109-.533-.218-.8-.318-.005,0-.005,0-.011,0-.258-.094-.51-.187-.768-.269-.06-.022-.127-.044-.187-.06-.263-.088-.527-.165-.789-.236-.3-.082-.593-.159-.889-.226a18.543,18.543,0,0,0-4.158-.472,20.845,20.845,0,0,0-12.074,4.1,52.619,52.619,0,0,0-2.387-5.469,42.81,42.81,0,0,0-5.9-8.854,28.729,28.729,0,0,0-8.2-6.638ZM22.153,97.43l1.375,10.784H52.491L77.446,83.259V54.306a28.729,28.729,0,0,0-8.2,6.638,42.846,42.846,0,0,0-5.9,8.854,52.813,52.813,0,0,0-2.387,5.469,20.832,20.832,0,0,0-12.074-4.1,18.543,18.543,0,0,0-4.158.472c-.3.067-.6.144-.889.226-.263.071-.527.148-.789.236-.06.016-.127.038-.187.06-.257.082-.516.175-.769.269l-.01,0c-.268.1-.537.209-.8.318-.022.012-.038.018-.06.029-.284.121-.575.252-.856.389-.251.121-.5.248-.751.379-.054.027-.109.055-.158.082-.213.115-.428.236-.642.356a1.326,1.326,0,0,0-.181.1c-.257.149-.516.307-.769.472-.291.186-.58.379-.867.576s-.57.406-.856.62c-.312.23-.619.472-.922.729-.251.2-.5.413-.746.632-.548.477-1.081.982-1.6,1.508q-.386.387-.756.79l-.033.033c-.236.257-.466.516-.7.778q-.775.89-1.515,1.86c-.209.267-.411.547-.614.823-.291.405-.576.812-.856,1.234-.2.3-.4.6-.587.9q-.379.586-.741,1.2c-.193.329-.391.663-.576,1s-.374.68-.555,1.026H20.984Z" transform="translate(0.568 0.5)" fill="#d3b84d" stroke="rgba(0,0,0,0)" stroke-width="1"/>
</svg>
